<?xml version="1.0" standalone="no"?>
<!DOCTYPE svg PUBLIC "-//W3C//DTD SVG 20010904//EN"
 "http://www.w3.org/TR/2001/REC-SVG-20010904/DTD/svg10.dtd">
<svg version="1.0" xmlns="http://www.w3.org/2000/svg"
 width="192.000000pt" height="192.000000pt" viewBox="0 0 192.000000 192.000000"
 preserveAspectRatio="xMidYMid meet">

<g transform="translate(0.000000,192.000000) scale(0.100000,-0.100000)"
fill="#B00000" stroke="none">
<path d="M967 1594 c-3 -3 -25 -6 -49 -6 -28 1 -50 -5 -63 -17 -11 -10 -36
-21 -55 -25 -19 -3 -46 -8 -60 -11 -14 -2 -35 -17 -47 -32 -19 -23 -23 -25
-29 -10 -5 15 -8 15 -26 3 -11 -8 -26 -12 -33 -10 -7 3 -16 1 -20 -5 -3 -6
-21 -11 -38 -11 -33 0 -40 -5 -90 -72 -16 -21 -41 -39 -57 -43 -28 -6 -45 -29
-34 -46 3 -5 -2 -9 -11 -9 -9 0 -25 -10 -35 -22 -16 -20 -17 -26 -5 -43 10
-17 10 -24 0 -38 -7 -9 -17 -17 -22 -17 -17 0 -65 -69 -61 -88 2 -12 11 -16
28 -13 58 10 75 7 75 -14 0 -11 -4 -20 -10 -20 -5 -1 -20 -6 -31 -12 -17 -10
-25 -9 -40 2 -29 22 -50 18 -83 -14 -32 -31 -52 -81 -32 -81 6 0 14 -18 17
-40 7 -44 14 -47 79 -25 22 7 31 13 20 14 -14 1 -16 4 -8 12 14 14 47 4 38
-11 -3 -5 0 -10 8 -10 17 0 77 30 62 30 -5 0 -3 5 6 10 9 5 29 6 45 1 27 -7
28 -8 9 -19 -18 -10 -18 -11 -3 -12 10 0 17 -3 17 -7 -3 -20 3 -23 22 -9 12 8
27 12 35 9 8 -3 17 2 20 11 3 9 13 16 22 16 21 0 4 16 -23 23 -14 3 -10 5 11
6 16 0 35 -4 42 -11 6 -6 33 -12 59 -13 81 -4 146 -15 193 -35 136 -55 130
-50 158 -109 22 -48 26 -68 25 -139 -1 -90 -8 -105 -59 -127 -65 -27 -177 -35
-493 -35 -207 0 -321 -4 -321 -10 0 -7 282 -10 825 -10 512 0 825 4 825 9 0 6
-123 11 -307 13 -300 3 -309 4 -345 26 -20 12 -39 29 -42 38 -11 28 -8 189 4
214 6 14 31 38 54 53 l43 27 299 2 c164 1 275 3 246 5 -45 4 -54 8 -62 29 -12
30 -82 64 -145 69 -16 1 -40 5 -52 9 -27 9 -29 -1 -6 -26 15 -17 15 -20 3 -28
-8 -5 -15 -17 -15 -27 0 -16 -8 -18 -70 -15 -47 2 -80 10 -101 23 -17 10 -40
19 -50 18 -11 0 -4 -5 15 -12 57 -20 52 -39 -10 -35 -29 2 -54 8 -56 14 -4 13
30 54 46 54 6 0 11 5 11 10 0 6 20 10 44 10 25 0 48 -4 51 -10 9 -15 35 -12
35 4 0 8 14 17 30 21 17 4 30 11 30 16 0 6 -6 7 -12 3 -9 -5 -8 -2 1 10 11 13
11 20 3 28 -7 7 -12 20 -12 29 0 9 -8 19 -19 22 -14 3 -17 11 -14 31 6 28 22
33 42 14 10 -11 10 -7 1 16 -6 16 -9 30 -7 32 8 9 87 -38 81 -48 -9 -13 14
-28 46 -28 22 -1 23 -2 9 -13 -15 -11 -15 -16 -3 -37 7 -14 13 -19 14 -12 0 6
7 12 16 12 10 0 13 -6 10 -17 -8 -26 7 -45 38 -46 19 -2 24 -6 21 -18 -4 -11
6 -26 27 -43 28 -21 34 -23 36 -10 2 9 -2 20 -10 25 -10 6 -10 9 0 9 15 0 16
32 1 47 -9 9 -5 18 12 35 22 22 25 36 20 91 0 9 -7 17 -15 17 -7 0 -19 7 -26
15 -7 8 -27 19 -44 23 -27 8 -31 12 -28 40 2 18 -1 32 -6 32 -16 0 -51 76 -45
98 3 15 0 24 -11 28 -9 3 -16 12 -16 19 0 18 -61 85 -77 85 -7 0 -10 6 -7 14
5 13 -38 32 -60 27 -4 -1 -18 4 -30 12 -11 8 -43 16 -70 19 -30 4 -52 12 -58
22 -5 9 -19 16 -31 16 -13 0 -28 5 -34 11 -7 7 -22 8 -46 1 -26 -7 -38 -6 -48
3 -15 15 -92 29 -102 19z m-47 -178 c0 -3 -4 -8 -10 -11 -5 -3 -10 -1 -10 4 0
6 5 11 10 11 6 0 10 -2 10 -4z m425 -106 c-3 -5 -11 -10 -16 -10 -6 0 -7 5 -4
10 3 6 11 10 16 10 6 0 7 -4 4 -10z m65 -20 c0 -5 -4 -10 -10 -10 -5 0 -10 5
-10 10 0 6 5 10 10 10 6 0 10 -4 10 -10z m-100 -10 c0 -5 -4 -10 -10 -10 -5 0
-10 5 -10 10 0 6 5 10 10 10 6 0 10 -4 10 -10z m30 -84 c0 -3 -4 -8 -10 -11
-5 -3 -10 -1 -10 4 0 6 5 11 10 11 6 0 10 -2 10 -4z m-140 -26 c0 -5 -2 -10
-4 -10 -3 0 -8 5 -11 10 -3 6 -1 10 4 10 6 0 11 -4 11 -10z m-29 -30 c19 0 8
-28 -18 -45 -26 -17 -27 -17 -45 5 -35 43 -18 73 18 32 19 -22 23 -24 24 -9 0
9 -5 17 -11 17 -8 0 -7 6 2 17 13 15 14 15 17 0 2 -10 8 -17 13 -17z m59 11
c0 -12 -20 -25 -27 -18 -7 7 6 27 18 27 5 0 9 -4 9 -9z m-222 -41 c4 -41 -10
-57 -32 -35 -19 19 -21 46 -4 63 19 19 33 9 36 -28z m271 18 c11 -10 14 -10
18 0 3 6 20 12 40 12 27 0 34 -4 31 -17 -4 -21 -57 -51 -80 -45 -12 3 -21 -4
-28 -23 -13 -33 -13 -38 0 -30 6 3 10 2 10 -4 0 -6 -11 -13 -24 -17 -19 -4
-24 -12 -23 -32 2 -21 -3 -28 -20 -30 -13 -2 -23 -10 -23 -18 0 -8 -4 -13 -9
-10 -14 9 -2 42 25 67 28 27 30 36 7 61 -15 17 -15 20 5 41 12 13 22 28 22 34
0 10 14 20 31 22 3 1 11 -5 18 -11z m-447 -24 c9 -3 19 -12 22 -20 9 -22 -41
-17 -54 5 -13 26 -13 34 3 27 6 -3 20 -9 29 -12z m215 -14 c-3 -11 -1 -23 4
-26 12 -7 1 -24 -16 -24 -8 0 -13 12 -12 35 1 23 6 35 15 35 9 0 13 -7 9 -20z
m-130 -5 c8 -9 13 -18 11 -21 -8 -8 -36 7 -42 22 -7 19 12 18 31 -1z m678 -25
c8 -13 -5 -13 -25 0 -13 8 -13 10 2 10 9 0 20 -4 23 -10z m81 -27 c-1 -1 -12
0 -25 4 -15 4 -19 8 -10 13 10 7 42 -10 35 -17z m-843 -10 c10 -13 24 -23 31
-23 7 0 23 -12 37 -27 21 -23 22 -25 4 -18 -11 4 -38 14 -60 22 -22 8 -47 21
-56 29 -8 8 -23 14 -32 14 -9 0 -17 4 -17 8 0 29 69 24 93 -5z m61 -8 c11 -8
17 -17 14 -21 -8 -7 -68 36 -68 48 0 9 23 -2 54 -27z m21 25 c3 -5 1 -10 -4
-10 -6 0 -11 5 -11 10 0 6 2 10 4 10 3 0 8 -4 11 -10z m99 -15 c9 -14 12 -25
7 -25 -5 0 -16 11 -25 25 -9 14 -12 25 -7 25 5 0 16 -11 25 -25z m-52 -57
c-16 -16 -32 0 -32 34 l0 31 21 -27 c15 -19 18 -31 11 -38z m8 52 c0 -5 -4
-10 -10 -10 -5 0 -10 5 -10 10 0 6 5 10 10 10 6 0 10 -4 10 -10z m206 -20 c22
0 17 -16 -9 -27 -21 -10 -23 -8 -21 16 2 34 4 39 11 24 2 -7 11 -13 19 -13z
m-406 2 c0 -8 73 -43 95 -46 16 -2 58 -27 82 -49 16 -14 20 -24 13 -33 -6 -6
-9 -16 -8 -20 7 -21 -43 -7 -125 35 -51 26 -80 57 -92 99 -5 18 -2 22 14 22
12 0 21 -4 21 -8z m-40 -31 c0 -9 5 -22 11 -28 19 -19 1 -31 -33 -24 -33 7
-52 31 -23 31 9 0 13 4 10 10 -7 11 16 40 28 33 4 -2 7 -12 7 -22z m-123 2
c-4 -3 0 -15 10 -25 25 -28 8 -32 -27 -6 -34 24 -33 24 19 37 2 1 1 -2 -2 -6z
m518 -3 c3 -5 -1 -10 -9 -10 -9 0 -16 5 -16 10 0 6 4 10 9 10 6 0 13 -4 16
-10z m255 2 c0 -15 -11 -21 -27 -15 -12 5 -12 7 -1 14 17 11 28 11 28 1z
m-220 -70 c0 -11 -66 -42 -88 -42 -13 0 -9 6 13 25 29 23 75 34 75 17z m0 -29
c-1 -20 -74 -83 -95 -83 -4 0 -5 10 -3 22 4 28 99 86 98 61z m-160 -23 c0 -5
-2 -10 -4 -10 -3 0 -8 5 -11 10 -3 6 -1 10 4 10 6 0 11 -4 11 -10z"/>
<path d="M870 923 c0 -11 58 -69 62 -62 2 2 -12 19 -29 37 -18 19 -33 30 -33
25z"/>
<path d="M245 840 c-72 -3 39 -6 245 -6 206 -1 364 0 350 2 -50 6 -469 9 -595
4z"/>
<path d="M796 799 c6 -11 44 -12 44 -1 0 4 -11 8 -25 8 -14 1 -22 -2 -19 -7z"/>
<path d="M446 764 c-12 -12 -16 -38 -16 -114 0 -118 4 -130 40 -130 29 0 40
15 40 53 0 25 -16 12 -22 -18 -2 -11 -10 -20 -18 -20 -12 0 -16 21 -18 113 -3
107 -2 112 18 112 15 0 20 -7 20 -25 0 -14 5 -25 10 -25 16 0 12 37 -6 54 -8
9 -19 16 -24 16 -5 0 -16 -7 -24 -16z"/>
<path d="M1286 767 c-14 -10 -16 -29 -14 -127 l3 -115 30 0 30 0 3 117 c2 106
1 118 -16 127 -14 7 -24 7 -36 -2z m39 -122 c0 -103 -1 -110 -20 -110 -18 0
-20 8 -23 99 -3 112 0 129 25 124 16 -3 18 -16 18 -113z"/>
<path d="M1496 767 c-14 -10 -16 -29 -14 -127 l3 -115 30 0 30 0 3 117 c2 106
1 118 -16 127 -14 7 -24 7 -36 -2z m39 -122 c0 -103 -1 -110 -20 -110 -18 0
-20 8 -23 99 -3 112 0 129 25 124 16 -3 18 -16 18 -113z"/>
<path d="M120 652 c0 -76 4 -122 10 -122 6 0 8 18 6 43 -4 45 7 78 21 64 4 -5
13 -31 18 -59 6 -30 16 -53 25 -56 12 -4 13 -2 3 9 -7 7 -13 25 -13 40 0 15
-4 39 -9 52 -6 15 -6 39 -1 59 20 80 22 93 10 82 -6 -6 -14 -33 -18 -60 -5
-34 -12 -49 -22 -49 -11 0 -15 13 -15 52 0 28 -3 55 -7 59 -5 4 -8 -47 -8
-114z"/>
<path d="M232 643 c1 -70 3 -107 5 -82 4 43 7 47 34 53 l30 6 -3 72 -3 73 -32
3 -33 3 2 -128z m56 51 c2 -50 0 -63 -13 -68 -28 -11 -35 3 -35 70 0 62 1 65
23 62 20 -3 22 -9 25 -64z"/>
<path d="M357 763 c-10 -10 -8 -65 2 -59 9 6 21 -49 21 -97 0 -22 -4 -28 -17
-25 -15 3 -18 13 -16 58 2 48 1 51 -7 21 -4 -19 -11 -59 -14 -90 -4 -46 -4
-51 5 -28 14 35 46 36 60 1 18 -50 18 -18 -1 100 -20 124 -22 130 -33 119z"/>
<path d="M530 645 c0 -82 4 -124 10 -120 6 3 10 31 10 61 0 47 2 54 20 54 23
0 35 -34 28 -80 -3 -17 -1 -30 4 -30 4 0 8 55 8 122 0 67 -3 118 -7 115 -3 -4
-6 -30 -7 -59 -1 -47 -4 -53 -23 -56 -21 -3 -23 0 -23 52 0 30 -4 58 -10 61
-6 4 -10 -38 -10 -120z"/>
<path d="M642 647 l-2 -128 33 3 32 3 3 71 c3 72 3 72 -27 82 -26 9 -30 16
-34 54 -2 24 -4 -15 -5 -85z m56 -43 c2 -50 0 -63 -13 -68 -28 -10 -35 3 -35
63 0 62 5 73 30 69 11 -2 16 -19 18 -64z"/>
<path d="M736 761 c-7 -10 2 -232 9 -239 3 -3 5 52 5 121 0 121 -2 138 -14
118z"/>
<path d="M782 645 c-1 -71 2 -125 6 -120 12 14 35 115 28 122 -3 4 -6 -2 -6
-12 0 -12 -3 -15 -9 -9 -6 5 -12 41 -14 79 -2 43 -4 19 -5 -60z"/>
<path d="M836 732 c-4 -20 -10 -45 -13 -56 -3 -12 -1 -16 6 -12 8 5 11 -14 11
-63 0 -41 4 -71 10 -71 6 0 10 45 10 114 0 115 -12 158 -24 88z"/>
<path d="M1183 763 c15 -4 17 -20 19 -126 l2 -122 6 119 c4 107 7 120 25 127
14 5 7 7 -25 7 -25 0 -37 -2 -27 -5z"/>
<path d="M1370 650 c0 -73 4 -120 10 -120 6 0 10 45 10 115 0 108 1 115 20
115 19 0 20 -7 20 -114 0 -66 4 -117 10 -121 6 -4 10 38 10 119 l0 126 -40 0
-40 0 0 -120z"/>
<path d="M1598 663 c-3 -59 -8 -117 -13 -128 -7 -17 -6 -18 6 -7 10 9 16 47
19 120 4 91 8 107 23 110 15 3 17 -8 17 -119 0 -85 3 -120 10 -113 7 7 10 56
8 125 l-3 114 -31 3 -32 3 -4 -108z"/>
<path d="M1702 648 c-2 -120 -1 -128 17 -128 44 0 51 10 51 74 0 64 -11 86
-41 86 -14 0 -19 10 -22 48 -2 26 -4 -10 -5 -80z m46 10 c17 -17 15 -103 -3
-118 -24 -20 -35 -2 -35 59 0 70 11 86 38 59z"/>
</g>
</svg>
